<svg xmlns="http://www.w3.org/2000/svg" width="142" height="70" fill="none"><g clip-path="url(#a)"><path fill="#D64343" fill-rule="evenodd" d="M0 31.032V.192h30.136c5.182 0 9.716 1.022 13.603 3.067 3.886 2.046 6.909 4.92 9.068 8.625s3.238 8.035 3.238 12.99c0 5-1.113 9.329-3.34 12.988-2.205 3.659-5.307 6.477-9.307 8.454-3.978 1.977-8.625 2.966-13.944 2.966h-10.5V70.01H0V51.24c4.382-9.743 10.772-16.363 18.642-21.421l-.165 5.932L27 32.744l8.523 3.006-.249-8.968 5.516-7.11-8.676-2.536L27 9.736l-5.114 7.4-8.676 2.537 3.69 4.756c-6.058.67-12.096 2.468-16.9 6.603Z" clip-rule="evenodd"/><path fill="#4A4A4A" d="M28.454 70.273c-1.113 0-2.098-.182-2.954-.546a4.442 4.442 0 0 1-2-1.681c-.485-.75-.727-1.705-.727-2.864 0-.955.163-1.77.488-2.443a4.4 4.4 0 0 1 1.364-1.67 6.438 6.438 0 0 1 2.034-.99c.78-.227 1.621-.374 2.523-.443.977-.075 1.761-.166 2.352-.272.599-.114 1.03-.27 1.296-.466a.97.97 0 0 0 .397-.807v-.046c0-.454-.174-.803-.522-1.045-.349-.242-.796-.364-1.341-.364-.599 0-1.088.133-1.466.398-.372.258-.595.655-.67 1.193h-5.774a5.948 5.948 0 0 1 1.012-2.931c.606-.902 1.488-1.622 2.648-2.16 1.159-.545 2.606-.818 4.34-.818 1.25 0 2.372.148 3.364.443.993.288 1.837.694 2.534 1.216.697.515 1.228 1.122 1.591 1.819.371.689.557 1.439.557 2.25V70h-5.864v-2.454H33.5c-.349.651-.773 1.177-1.273 1.579a4.683 4.683 0 0 1-1.693.875 7.47 7.47 0 0 1-2.08.273Zm2.046-3.955c.477 0 .924-.098 1.34-.295a2.584 2.584 0 0 0 1.035-.852c.265-.372.398-.823.398-1.353v-1.454a7.214 7.214 0 0 1-.534.193 10.881 10.881 0 0 1-1.25.318c-.228.045-.466.087-.716.125-.485.076-.883.2-1.194.375-.303.167-.53.375-.681.625a1.572 1.572 0 0 0-.216.818c0 .485.17.856.511 1.114.341.257.777.386 1.307.386Zm27.952-8.09h-5.773a1.589 1.589 0 0 0-.375-.921 2.104 2.104 0 0 0-.852-.591 2.894 2.894 0 0 0-1.137-.216c-.537 0-1 .099-1.386.295-.386.197-.576.478-.568.841-.008.258.102.497.33.716.234.22.685.39 1.352.512l3.545.636c1.788.326 3.117.875 3.989 1.648.879.765 1.322 1.791 1.33 3.08-.008 1.242-.38 2.321-1.114 3.238-.728.909-1.724 1.614-2.989 2.114-1.258.492-2.693.738-4.307.738-2.666 0-4.754-.545-6.261-1.636-1.5-1.091-2.337-2.53-2.512-4.318h6.228c.083.553.356.98.818 1.284.47.295 1.06.443 1.773.443.575 0 1.049-.099 1.42-.295.379-.198.572-.478.58-.842-.008-.333-.175-.598-.5-.795-.319-.197-.819-.356-1.5-.477l-3.091-.546c-1.78-.31-3.114-.901-4-1.772-.887-.872-1.326-1.993-1.319-3.364-.007-1.212.311-2.239.955-3.08.652-.848 1.58-1.492 2.784-1.931 1.212-.447 2.648-.67 4.307-.67 2.523 0 4.511.522 5.966 1.567 1.462 1.046 2.23 2.493 2.307 4.341Zm18.812 0h-5.772a1.589 1.589 0 0 0-.376-.921 2.104 2.104 0 0 0-.852-.591 2.894 2.894 0 0 0-1.136-.216c-.538 0-1 .099-1.386.295-.387.197-.576.478-.569.841-.007.258.103.497.33.716.235.22.685.39 1.352.512l3.546.636c1.787.326 3.117.875 3.988 1.648.879.765 1.322 1.791 1.33 3.08-.008 1.242-.379 2.321-1.114 3.238-.727.909-1.723 1.614-2.989 2.114-1.257.492-2.693.738-4.306.738-2.667 0-4.754-.545-6.262-1.636-1.5-1.091-2.337-2.53-2.511-4.318h6.227c.084.553.356.98.818 1.284.47.295 1.061.443 1.773.443.576 0 1.05-.099 1.42-.295.38-.198.572-.478.58-.842-.008-.333-.174-.598-.5-.795-.318-.197-.818-.356-1.5-.477l-3.09-.546c-1.781-.31-3.114-.901-4-1.772-.887-.872-1.327-1.993-1.319-3.364-.008-1.212.31-2.239.955-3.08.651-.848 1.58-1.492 2.784-1.931 1.212-.447 2.647-.67 4.306-.67 2.523 0 4.512.522 5.966 1.567 1.463 1.046 2.231 2.493 2.307 4.341Zm17.88-3.819a3.119 3.119 0 0 0-.465-1.057 2.902 2.902 0 0 0-.796-.784 3.263 3.263 0 0 0-1.09-.488c-.41-.114-.86-.17-1.353-.17-1.06 0-1.966.253-2.716.76-.742.508-1.31 1.24-1.704 2.194-.386.954-.58 2.106-.58 3.454 0 1.364.186 2.53.557 3.5.371.97.924 1.712 1.66 2.228.734.515 1.647.772 2.738.772.962 0 1.761-.14 2.398-.42.644-.28 1.125-.678 1.443-1.193.318-.516.477-1.122.477-1.819l1.091.114h-5.318V57h10.318v3.227c0 2.122-.451 3.936-1.352 5.444a8.96 8.96 0 0 1-3.705 3.454c-1.568.796-3.367 1.193-5.398 1.193-2.265 0-4.253-.48-5.966-1.443-1.712-.962-3.049-2.333-4.01-4.114-.955-1.78-1.433-3.897-1.433-6.352 0-1.924.292-3.629.875-5.114.591-1.484 1.41-2.738 2.455-3.76a10.376 10.376 0 0 1 3.625-2.33c1.371-.53 2.84-.796 4.409-.796 1.379 0 2.66.197 3.84.591 1.19.386 2.24.94 3.149 1.66a8.625 8.625 0 0 1 2.216 2.533c.56.977.901 2.05 1.022 3.216h-6.386Zm18.061 15.91c-1.864 0-3.47-.357-4.819-1.069a7.482 7.482 0 0 1-3.102-3.09c-.72-1.35-1.079-2.963-1.079-4.842 0-1.803.363-3.379 1.09-4.727a7.8 7.8 0 0 1 3.08-3.148c1.326-.75 2.89-1.125 4.693-1.125 1.318 0 2.512.205 3.58.614a7.493 7.493 0 0 1 2.738 1.784c.758.773 1.341 1.712 1.75 2.818.409 1.106.614 2.352.614 3.739v1.454h-15.591v-3.454h9.818c-.007-.5-.136-.94-.386-1.319a2.464 2.464 0 0 0-.989-.897 2.906 2.906 0 0 0-1.397-.33c-.508 0-.974.11-1.398.33a2.646 2.646 0 0 0-1.023.886c-.25.379-.382.822-.398 1.33V63c0 .56.118 1.06.353 1.5.234.44.572.784 1.011 1.034.439.25.97.375 1.591.375.432 0 .826-.06 1.182-.182a2.67 2.67 0 0 0 .932-.523c.257-.234.447-.515.568-.84h5.727c-.197 1.212-.663 2.265-1.398 3.159-.735.886-1.708 1.576-2.92 2.068-1.205.485-2.614.727-4.227.727Zm17.377-10.137V70h-6.272V52.545h5.954v3.319h.182c.379-1.106 1.045-1.974 2-2.603.962-.628 2.083-.943 3.364-.943 1.235 0 2.306.284 3.216.852a5.667 5.667 0 0 1 2.125 2.319c.507.985.757 2.11.75 3.375V70h-6.273v-9.818c.007-.864-.212-1.542-.659-2.034-.44-.493-1.053-.739-1.841-.739-.515 0-.966.114-1.352.341-.379.22-.671.538-.875.955-.205.409-.311.901-.319 1.477Z"/></g><defs><clipPath id="a"><path fill="#fff" d="M0 0h142v70H0z"/></clipPath></defs></svg>